<?xml version="1.0" encoding="iso-8859-1"?>
<!-- Generator: Adobe Illustrator 18.0.0, SVG Export Plug-In . SVG Version: 6.00 Build 0)  -->
<!DOCTYPE svg PUBLIC "-//W3C//DTD SVG 1.1//EN" "http://www.w3.org/Graphics/SVG/1.1/DTD/svg11.dtd">
<svg version="1.1" id="Capa_1" xmlns="http://www.w3.org/2000/svg" xmlns:xlink="http://www.w3.org/1999/xlink" x="0px" y="0px"
	 viewBox="0 0 494.135 494.135" style="enable-background:new 0 0 494.135 494.135;" xml:space="preserve">
<path id="XMLID_611_" d="M492.994,175.631c-19.072-39.3-92.593-42.967-164.196-8.191c-18.276,8.865-34.64,19.378-48.588,30.764
	c-0.35,0.298-0.77,0.499-1.141,0.777c-1.406-7.294-4.277-13.852-8.264-19.09l8.345-6.275c3.618-2.725,4.357-7.865,1.637-11.483
	c-2.69-3.62-7.85-4.331-11.467-1.633l-11.836,8.887c-3.297-1.395-6.758-2.328-10.426-2.328c-3.649,0-7.11,0.934-10.408,2.328
	l-11.823-8.887c-3.618-2.714-8.771-1.987-11.5,1.633c-2.701,3.618-1.98,8.758,1.637,11.483l8.358,6.275
	c-3.969,5.229-6.853,11.787-8.264,19.085c-0.382-0.289-0.796-0.498-1.184-0.803c-13.931-11.379-30.282-21.877-48.525-30.732
	c-71.616-34.776-145.126-31.109-164.216,8.191c-1.711,3.549-1.474,7.737,0.658,11.059c2.132,3.323,5.83,5.295,9.787,5.213
	c8.294-0.185,16.732,1.52,24.726,5.398c19.392,9.417,30.589,28.73,30.684,48.908c0,3.555,1.699,6.896,4.533,9.025
	c2.834,2.132,6.52,2.803,9.942,1.818c12.446-3.596,26.188-2.817,38.79,3.298c15.855,7.706,26.293,22.047,29.661,38.062
	c0.639,3.107,2.564,5.796,5.297,7.42c2.727,1.617,6.006,2.033,9.053,1.115c10.057-3.028,21.173-2.482,31.373,2.464
	c9.655,4.677,41.14,41.144,51.422,41.144c10.3,0,41.797-36.467,51.44-41.144c10.2-4.946,21.329-5.492,31.372-2.464
	c3.041,0.918,6.327,0.502,9.048-1.115c2.739-1.625,4.677-4.313,5.316-7.42c3.367-16.015,13.793-30.356,29.66-38.062
	c12.589-6.115,26.332-6.894,38.79-3.298c3.41,0.985,7.096,0.314,9.931-1.818c2.846-2.128,4.532-5.47,4.545-9.025
	c0.101-20.178,11.279-39.491,30.683-48.908c7.98-3.878,16.433-5.583,24.732-5.398c3.937,0.082,7.656-1.89,9.768-5.213
	C494.486,183.368,494.712,179.18,492.994,175.631z"/>
<g>
</g>
<g>
</g>
<g>
</g>
<g>
</g>
<g>
</g>
<g>
</g>
<g>
</g>
<g>
</g>
<g>
</g>
<g>
</g>
<g>
</g>
<g>
</g>
<g>
</g>
<g>
</g>
<g>
</g>
</svg>
