<?xml version="1.0" encoding="iso-8859-1"?>
<!-- Generator: Adobe Illustrator 18.0.0, SVG Export Plug-In . SVG Version: 6.00 Build 0)  -->
<!DOCTYPE svg PUBLIC "-//W3C//DTD SVG 1.1//EN" "http://www.w3.org/Graphics/SVG/1.1/DTD/svg11.dtd">
<svg version="1.1" id="Capa_1" xmlns="http://www.w3.org/2000/svg" xmlns:xlink="http://www.w3.org/1999/xlink" x="0px" y="0px"
	 viewBox="0 0 482.823 482.823" style="enable-background:new 0 0 482.823 482.823;" xml:space="preserve">
<g id="XMLID_103_">
	<path id="XMLID_107_" d="M121.449,434.616L121.449,434.616L82.09,167.375l36.282-116.484h57.636l25.912-48.209h-86.527
		c-19.444,0-36.381,12.477-42.155,31.025L35.794,153.926c-1.942,6.291-2.476,13.056-1.518,19.566l39.998,271.605
		c3.152,21.515,21.938,37.726,43.672,37.726h72.594l-23.774-4.597C144.731,473.972,125.054,456.099,121.449,434.616z"/>
	<path id="XMLID_104_" d="M434.23,49.87c-1.039-9.167-7.894-16.603-16.949-18.363L256.434,0.394C255.082,0.126,253.73,0,252.416,0
		c-7.661,0-14.848,4.189-18.547,11.109l-62.647,116.595c-1.505,2.792-2.353,5.886-2.495,9.037l-12.913,288.303
		c-0.473,10.435,6.776,19.647,17.041,21.624l155.576,30.096c1.346,0.254,2.697,0.378,4.012,0.378c8.79,0,16.875-5.523,19.867-14.093
		l95.508-272.324c1.05-2.983,1.413-6.167,1.063-9.306L434.23,49.87z M381.909,184.571c-2.341,12.1-12.944,20.527-24.843,20.527
		c-1.597,0-3.214-0.156-4.847-0.473l-25.107-4.845L295.787,361.74c-2.322,12.098-12.932,20.525-24.826,20.525
		c-1.597,0-3.23-0.158-4.847-0.471c-13.729-2.653-22.724-15.945-20.069-29.69l31.318-161.947l-25.107-4.864
		c-13.743-2.651-22.718-15.942-20.07-29.69c2.654-13.731,16.01-22.674,29.677-20.053l25.121,4.863l8.336-43.122
		c2.666-13.73,15.991-22.724,29.69-20.053c13.743,2.648,22.724,15.939,20.051,29.688l-8.318,43.106l25.107,4.848
		C375.587,157.536,384.575,170.826,381.909,184.571z"/>
</g>
<g>
</g>
<g>
</g>
<g>
</g>
<g>
</g>
<g>
</g>
<g>
</g>
<g>
</g>
<g>
</g>
<g>
</g>
<g>
</g>
<g>
</g>
<g>
</g>
<g>
</g>
<g>
</g>
<g>
</g>
</svg>
